<svg xmlns="http://www.w3.org/2000/svg" width="24.0d" height="24.0d" viewBox="0 0 24.0 24.0"><path fill="#d5233f" d="m3.62,3v12.68c0,2.25 1.82,4.07 4.07,4.07h1.92c0.59,0 1.16,0.21 1.61,0.58l0.79,0.66 0.79,-0.66c0.45,-0.38 1.02,-0.58 1.61,-0.58h1.88c2.25,0 4.07,-1.82 4.07,-4.07L20.36,3L3.62,3ZM12,5.14c1.49,0 2.7,1.22 2.7,2.72s-1.21,2.72 -2.7,2.72 -2.7,-1.22 -2.7,-2.72 1.21,-2.72 2.7,-2.72ZM16.43,16.81L7.57,16.81c-0.37,0 -0.66,-0.32 -0.61,-0.69 0.33,-2.51 2.46,-4.44 5.04,-4.44s4.71,1.93 5.04,4.44c0.05,0.36 -0.24,0.69 -0.61,0.69Z"></path></svg>